<mxfile host="app.diagrams.net" agent="Mozilla/5.0 (Windows NT 10.0; Win64; x64) AppleWebKit/537.36 (KHTML, like Gecko) Chrome/135.0.0.0 Safari/537.36" version="26.2.13">
  <diagram name="Page-1" id="GtmhTtgCfAFyXDLij7Sa">
    <mxGraphModel dx="1428" dy="777" grid="1" gridSize="10" guides="1" tooltips="1" connect="1" arrows="1" fold="1" page="1" pageScale="1" pageWidth="1100" pageHeight="850" math="0" shadow="0">
      <root>
        <mxCell id="0" />
        <mxCell id="1" parent="0" />
        <mxCell id="9ob-cdifd-hkWzv3taAA-109" value="" style="edgeStyle=orthogonalEdgeStyle;rounded=0;orthogonalLoop=1;jettySize=auto;html=1;" edge="1" parent="1">
          <mxGeometry relative="1" as="geometry">
            <mxPoint x="710" y="230" as="sourcePoint" />
            <mxPoint x="NaN" y="476.5" as="targetPoint" />
          </mxGeometry>
        </mxCell>
        <mxCell id="9ob-cdifd-hkWzv3taAA-126" value="" style="shape=table;startSize=0;container=1;collapsible=0;childLayout=tableLayout;fontSize=16;" vertex="1" parent="1">
          <mxGeometry x="180" y="40" width="780" height="730" as="geometry" />
        </mxCell>
        <mxCell id="9ob-cdifd-hkWzv3taAA-127" value="" style="shape=tableRow;horizontal=0;startSize=0;swimlaneHead=0;swimlaneBody=0;strokeColor=inherit;top=0;left=0;bottom=0;right=0;collapsible=0;dropTarget=0;fillColor=none;points=[[0,0.5],[1,0.5]];portConstraint=eastwest;fontSize=16;" vertex="1" parent="9ob-cdifd-hkWzv3taAA-126">
          <mxGeometry width="780" height="80" as="geometry" />
        </mxCell>
        <mxCell id="9ob-cdifd-hkWzv3taAA-128" value="&lt;b&gt;Khách hàng&lt;/b&gt;" style="shape=partialRectangle;html=1;whiteSpace=wrap;connectable=0;strokeColor=inherit;overflow=hidden;fillColor=none;top=0;left=0;bottom=0;right=0;pointerEvents=1;fontSize=16;" vertex="1" parent="9ob-cdifd-hkWzv3taAA-127">
          <mxGeometry width="390" height="80" as="geometry">
            <mxRectangle width="390" height="80" as="alternateBounds" />
          </mxGeometry>
        </mxCell>
        <mxCell id="9ob-cdifd-hkWzv3taAA-129" value="&lt;b&gt;Hệ thống&lt;/b&gt;" style="shape=partialRectangle;html=1;whiteSpace=wrap;connectable=0;strokeColor=inherit;overflow=hidden;fillColor=none;top=0;left=0;bottom=0;right=0;pointerEvents=1;fontSize=16;" vertex="1" parent="9ob-cdifd-hkWzv3taAA-127">
          <mxGeometry x="390" width="390" height="80" as="geometry">
            <mxRectangle width="390" height="80" as="alternateBounds" />
          </mxGeometry>
        </mxCell>
        <mxCell id="9ob-cdifd-hkWzv3taAA-131" value="" style="shape=tableRow;horizontal=0;startSize=0;swimlaneHead=0;swimlaneBody=0;strokeColor=inherit;top=0;left=0;bottom=0;right=0;collapsible=0;dropTarget=0;fillColor=none;points=[[0,0.5],[1,0.5]];portConstraint=eastwest;fontSize=16;" vertex="1" parent="9ob-cdifd-hkWzv3taAA-126">
          <mxGeometry y="80" width="780" height="650" as="geometry" />
        </mxCell>
        <mxCell id="9ob-cdifd-hkWzv3taAA-132" value="" style="shape=partialRectangle;html=1;whiteSpace=wrap;connectable=0;strokeColor=inherit;overflow=hidden;fillColor=none;top=0;left=0;bottom=0;right=0;pointerEvents=1;fontSize=16;" vertex="1" parent="9ob-cdifd-hkWzv3taAA-131">
          <mxGeometry width="390" height="650" as="geometry">
            <mxRectangle width="390" height="650" as="alternateBounds" />
          </mxGeometry>
        </mxCell>
        <mxCell id="9ob-cdifd-hkWzv3taAA-133" value="" style="shape=partialRectangle;html=1;whiteSpace=wrap;connectable=0;strokeColor=inherit;overflow=hidden;fillColor=none;top=0;left=0;bottom=0;right=0;pointerEvents=1;fontSize=16;" vertex="1" parent="9ob-cdifd-hkWzv3taAA-131">
          <mxGeometry x="390" width="390" height="650" as="geometry">
            <mxRectangle width="390" height="650" as="alternateBounds" />
          </mxGeometry>
        </mxCell>
        <mxCell id="9ob-cdifd-hkWzv3taAA-148" value="" style="rounded=0;whiteSpace=wrap;html=1;" vertex="1" parent="1">
          <mxGeometry x="190" y="160" height="10" as="geometry" />
        </mxCell>
        <mxCell id="9ob-cdifd-hkWzv3taAA-149" value="" style="edgeStyle=orthogonalEdgeStyle;rounded=0;orthogonalLoop=1;jettySize=auto;html=1;" edge="1" parent="1" source="9ob-cdifd-hkWzv3taAA-150" target="9ob-cdifd-hkWzv3taAA-152">
          <mxGeometry relative="1" as="geometry" />
        </mxCell>
        <mxCell id="9ob-cdifd-hkWzv3taAA-150" value="" style="ellipse;fillColor=strokeColor;html=1;" vertex="1" parent="1">
          <mxGeometry x="220" y="170" width="60" height="60" as="geometry" />
        </mxCell>
        <mxCell id="9ob-cdifd-hkWzv3taAA-151" value="" style="edgeStyle=orthogonalEdgeStyle;rounded=0;orthogonalLoop=1;jettySize=auto;html=1;entryX=0;entryY=0.5;entryDx=0;entryDy=0;" edge="1" parent="1" source="9ob-cdifd-hkWzv3taAA-152" target="9ob-cdifd-hkWzv3taAA-153">
          <mxGeometry relative="1" as="geometry">
            <mxPoint x="510" y="460" as="targetPoint" />
            <Array as="points" />
          </mxGeometry>
        </mxCell>
        <mxCell id="9ob-cdifd-hkWzv3taAA-152" value="Chọn danh sách các sản phẩm" style="rounded=1;whiteSpace=wrap;html=1;" vertex="1" parent="1">
          <mxGeometry x="330" y="170" width="120" height="60" as="geometry" />
        </mxCell>
        <mxCell id="9ob-cdifd-hkWzv3taAA-153" value="Hiển thị thông tin các sản phẩm" style="rounded=1;whiteSpace=wrap;html=1;" vertex="1" parent="1">
          <mxGeometry x="650" y="170" width="120" height="60" as="geometry" />
        </mxCell>
        <mxCell id="9ob-cdifd-hkWzv3taAA-154" value="" style="edgeStyle=orthogonalEdgeStyle;rounded=0;orthogonalLoop=1;jettySize=auto;html=1;" edge="1" parent="1" source="9ob-cdifd-hkWzv3taAA-155" target="9ob-cdifd-hkWzv3taAA-156">
          <mxGeometry relative="1" as="geometry" />
        </mxCell>
        <mxCell id="9ob-cdifd-hkWzv3taAA-155" value="Hiển thị thông tin chi tiết của sản phẩm" style="rounded=1;whiteSpace=wrap;html=1;" vertex="1" parent="1">
          <mxGeometry x="620" y="560" width="120" height="60" as="geometry" />
        </mxCell>
        <mxCell id="9ob-cdifd-hkWzv3taAA-156" value="" style="ellipse;whiteSpace=wrap;html=1;rounded=1;" vertex="1" parent="1">
          <mxGeometry x="640" y="680" width="80" height="80" as="geometry" />
        </mxCell>
        <mxCell id="9ob-cdifd-hkWzv3taAA-157" value="" style="ellipse;fillColor=strokeColor;html=1;" vertex="1" parent="1">
          <mxGeometry x="650" y="690" width="60" height="60" as="geometry" />
        </mxCell>
        <mxCell id="9ob-cdifd-hkWzv3taAA-158" value="" style="edgeStyle=orthogonalEdgeStyle;rounded=0;orthogonalLoop=1;jettySize=auto;html=1;" edge="1" parent="1" source="9ob-cdifd-hkWzv3taAA-159" target="9ob-cdifd-hkWzv3taAA-161">
          <mxGeometry relative="1" as="geometry" />
        </mxCell>
        <mxCell id="9ob-cdifd-hkWzv3taAA-159" value="Yêu cầu xem thông tin chi tiết của sản phẩm" style="rounded=1;whiteSpace=wrap;html=1;" vertex="1" parent="1">
          <mxGeometry x="290" y="365" width="140" height="60" as="geometry" />
        </mxCell>
        <mxCell id="9ob-cdifd-hkWzv3taAA-160" value="" style="endArrow=classic;html=1;rounded=0;exitX=0.5;exitY=1;exitDx=0;exitDy=0;" edge="1" parent="1" source="9ob-cdifd-hkWzv3taAA-153" target="9ob-cdifd-hkWzv3taAA-159">
          <mxGeometry width="50" height="50" relative="1" as="geometry">
            <mxPoint x="630" y="420" as="sourcePoint" />
            <mxPoint x="680" y="370" as="targetPoint" />
            <Array as="points">
              <mxPoint x="710" y="320" />
              <mxPoint x="360" y="320" />
            </Array>
          </mxGeometry>
        </mxCell>
        <mxCell id="9ob-cdifd-hkWzv3taAA-161" value="Nhận yêu cầu xem thông tin chi tiết sản phẩm" style="rounded=1;whiteSpace=wrap;html=1;" vertex="1" parent="1">
          <mxGeometry x="640" y="365" width="140" height="60" as="geometry" />
        </mxCell>
        <mxCell id="9ob-cdifd-hkWzv3taAA-162" style="edgeStyle=orthogonalEdgeStyle;rounded=0;orthogonalLoop=1;jettySize=auto;html=1;entryX=0;entryY=0.5;entryDx=0;entryDy=0;" edge="1" parent="1" source="9ob-cdifd-hkWzv3taAA-163" target="9ob-cdifd-hkWzv3taAA-155">
          <mxGeometry relative="1" as="geometry" />
        </mxCell>
        <mxCell id="9ob-cdifd-hkWzv3taAA-163" value="Chọn sản phẩm muốn xem chi tiết" style="rounded=1;whiteSpace=wrap;html=1;" vertex="1" parent="1">
          <mxGeometry x="290" y="560" width="120" height="60" as="geometry" />
        </mxCell>
        <mxCell id="9ob-cdifd-hkWzv3taAA-164" value="" style="endArrow=classic;html=1;rounded=0;exitX=0.5;exitY=1;exitDx=0;exitDy=0;entryX=0.45;entryY=0.083;entryDx=0;entryDy=0;entryPerimeter=0;" edge="1" parent="1" source="9ob-cdifd-hkWzv3taAA-161" target="9ob-cdifd-hkWzv3taAA-163">
          <mxGeometry width="50" height="50" relative="1" as="geometry">
            <mxPoint x="630" y="420" as="sourcePoint" />
            <mxPoint x="680" y="370" as="targetPoint" />
            <Array as="points">
              <mxPoint x="710" y="510" />
              <mxPoint x="344" y="510" />
            </Array>
          </mxGeometry>
        </mxCell>
      </root>
    </mxGraphModel>
  </diagram>
</mxfile>
